# xmcd
#
# Track frame offsets:
#	150
#	18335
#	46285
#	68627
#	90567
#	114502
#	139325
#	158302
#	184875
#	206090
#
# Disc length: 3007 seconds
#
# Revision: 1
# Processed by: cddbd v1.5.1PL2 Copyright (c) Steve Scherf et al.
# Submitted via: audiograbber 1.83.01
#
DISCID=7f0bbd0a
DTITLE=Julie Blue - Heart of the River
DYEAR=1995
DGENRE=
TTITLE0=Close to the Heart
TTITLE1=Water Passages
TTITLE2=Between the Moon and Sun
TTITLE3=Waterfall
TTITLE4=Heart of the River
TTITLE5=Flying Dolphins
TTITLE6=Mosaic
TTITLE7=Lullabye for a Grey Whale
TTITLE8=Sometimes, the Rain...
TTITLE9=Seeds of Joy
EXTD=
EXTT0=
EXTT1=
EXTT2=
EXTT3=
EXTT4=
EXTT5=
EXTT6=
EXTT7=
EXTT8=
EXTT9=
PLAYORDER=
